<svg width="191" height="28" viewBox="0 0 191 28" fill="none" xmlns="http://www.w3.org/2000/svg">
<path d="M18.7556 13.896C20.1956 14.352 21.3236 15.12 22.1396 16.2C22.9556 17.256 23.3636 18.564 23.3636 20.124C23.3636 22.332 22.4996 24.036 20.7717 25.236C19.0676 26.412 16.5716 27 13.2836 27H0.251648V1.80002H12.5636C15.6356 1.80002 17.9876 2.38803 19.6196 3.56403C21.2757 4.74002 22.1036 6.33602 22.1036 8.35203C22.1036 9.57603 21.8036 10.668 21.2036 11.628C20.6276 12.588 19.8116 13.344 18.7556 13.896ZM6.04765 6.19203V12.132H11.8436C13.2836 12.132 14.3756 11.88 15.1196 11.376C15.8636 10.872 16.2356 10.128 16.2356 9.14403C16.2356 8.16003 15.8636 7.42803 15.1196 6.94802C14.3756 6.44403 13.2836 6.19203 11.8436 6.19203H6.04765ZM12.8516 22.608C14.3876 22.608 15.5396 22.356 16.3076 21.852C17.0996 21.348 17.4956 20.568 17.4956 19.512C17.4956 17.424 15.9476 16.38 12.8516 16.38H6.04765V22.608H12.8516Z" fill="#1F1F1F"/>
<path d="M36.599 27.288C34.559 27.288 32.723 26.868 31.091 26.028C29.483 25.164 28.223 23.976 27.311 22.464C26.399 20.952 25.943 19.236 25.943 17.316C25.943 15.396 26.399 13.68 27.311 12.168C28.223 10.656 29.483 9.48002 31.091 8.64002C32.723 7.77603 34.559 7.34403 36.599 7.34403C38.639 7.34403 40.463 7.77603 42.071 8.64002C43.679 9.48002 44.939 10.656 45.851 12.168C46.763 13.68 47.219 15.396 47.219 17.316C47.219 19.236 46.763 20.952 45.851 22.464C44.939 23.976 43.679 25.164 42.071 26.028C40.463 26.868 38.639 27.288 36.599 27.288ZM36.599 22.68C38.039 22.68 39.215 22.2 40.127 21.24C41.063 20.256 41.531 18.948 41.531 17.316C41.531 15.684 41.063 14.388 40.127 13.428C39.215 12.444 38.039 11.952 36.599 11.952C35.159 11.952 33.971 12.444 33.035 13.428C32.099 14.388 31.631 15.684 31.631 17.316C31.631 18.948 32.099 20.256 33.035 21.24C33.971 22.2 35.159 22.68 36.599 22.68Z" fill="#1F1F1F"/>
<path d="M60.1888 27.288C58.1488 27.288 56.3128 26.868 54.6808 26.028C53.0728 25.164 51.8128 23.976 50.9008 22.464C49.9888 20.952 49.5328 19.236 49.5328 17.316C49.5328 15.396 49.9888 13.68 50.9008 12.168C51.8128 10.656 53.0728 9.48002 54.6808 8.64002C56.3128 7.77603 58.1488 7.34403 60.1888 7.34403C62.2288 7.34403 64.0528 7.77603 65.6608 8.64002C67.2688 9.48002 68.5288 10.656 69.4408 12.168C70.3528 13.68 70.8088 15.396 70.8088 17.316C70.8088 19.236 70.3528 20.952 69.4408 22.464C68.5288 23.976 67.2688 25.164 65.6608 26.028C64.0528 26.868 62.2288 27.288 60.1888 27.288ZM60.1888 22.68C61.6288 22.68 62.8048 22.2 63.7168 21.24C64.6528 20.256 65.1208 18.948 65.1208 17.316C65.1208 15.684 64.6528 14.388 63.7168 13.428C62.8048 12.444 61.6288 11.952 60.1888 11.952C58.7488 11.952 57.5608 12.444 56.6248 13.428C55.6888 14.388 55.2208 15.684 55.2208 17.316C55.2208 18.948 55.6888 20.256 56.6248 21.24C57.5608 22.2 58.7488 22.68 60.1888 22.68Z" fill="#1F1F1F"/>
<path d="M82.8787 19.404L80.1787 22.068V27H74.5627V0.288025H80.1787V15.408L88.3867 7.63202H95.0827L87.0187 15.84L95.8027 27H88.9987L82.8787 19.404Z" fill="#1F1F1F"/>
<path d="M105.278 27.288C103.67 27.288 102.098 27.096 100.562 26.712C99.0259 26.304 97.8019 25.8 96.8899 25.2L98.7619 21.168C99.6259 21.72 100.67 22.176 101.894 22.536C103.118 22.872 104.318 23.04 105.494 23.04C107.87 23.04 109.058 22.452 109.058 21.276C109.058 20.724 108.734 20.328 108.086 20.088C107.438 19.848 106.442 19.644 105.098 19.476C103.514 19.236 102.206 18.96 101.174 18.648C100.142 18.336 99.2419 17.784 98.4739 16.992C97.7299 16.2 97.3579 15.072 97.3579 13.608C97.3579 12.384 97.7059 11.304 98.4019 10.368C99.1219 9.40802 100.154 8.66402 101.498 8.13602C102.866 7.60802 104.474 7.34402 106.322 7.34402C107.69 7.34402 109.046 7.50002 110.39 7.81202C111.758 8.10002 112.886 8.50802 113.774 9.03602L111.902 13.032C110.198 12.072 108.338 11.592 106.322 11.592C105.122 11.592 104.222 11.76 103.622 12.096C103.022 12.432 102.722 12.864 102.722 13.392C102.722 13.992 103.046 14.412 103.694 14.652C104.342 14.892 105.374 15.12 106.79 15.336C108.374 15.6 109.67 15.888 110.678 16.2C111.686 16.488 112.562 17.028 113.306 17.82C114.05 18.612 114.422 19.716 114.422 21.132C114.422 22.332 114.062 23.4 113.342 24.336C112.622 25.272 111.566 26.004 110.174 26.532C108.806 27.036 107.174 27.288 105.278 27.288Z" fill="white"/>
<path d="M130.379 26.064C129.827 26.472 129.143 26.784 128.327 27C127.535 27.192 126.695 27.288 125.807 27.288C123.503 27.288 121.715 26.7 120.443 25.524C119.195 24.348 118.571 22.62 118.571 20.34V12.384H115.583V8.06402H118.571V3.34802H124.187V8.06402H129.011V12.384H124.187V20.268C124.187 21.084 124.391 21.72 124.799 22.176C125.231 22.608 125.831 22.824 126.599 22.824C127.487 22.824 128.243 22.584 128.867 22.104L130.379 26.064Z" fill="white"/>
<path d="M142.15 27.288C140.11 27.288 138.274 26.868 136.642 26.028C135.034 25.164 133.774 23.976 132.862 22.464C131.95 20.952 131.494 19.236 131.494 17.316C131.494 15.396 131.95 13.68 132.862 12.168C133.774 10.656 135.034 9.48002 136.642 8.64002C138.274 7.77602 140.11 7.34402 142.15 7.34402C144.19 7.34402 146.014 7.77602 147.622 8.64002C149.23 9.48002 150.49 10.656 151.402 12.168C152.314 13.68 152.77 15.396 152.77 17.316C152.77 19.236 152.314 20.952 151.402 22.464C150.49 23.976 149.23 25.164 147.622 26.028C146.014 26.868 144.19 27.288 142.15 27.288ZM142.15 22.68C143.59 22.68 144.766 22.2 145.678 21.24C146.614 20.256 147.082 18.948 147.082 17.316C147.082 15.684 146.614 14.388 145.678 13.428C144.766 12.444 143.59 11.952 142.15 11.952C140.71 11.952 139.522 12.444 138.586 13.428C137.65 14.388 137.182 15.684 137.182 17.316C137.182 18.948 137.65 20.256 138.586 21.24C139.522 22.2 140.71 22.68 142.15 22.68Z" fill="white"/>
<path d="M161.888 10.188C162.56 9.25202 163.46 8.54402 164.588 8.06402C165.74 7.58402 167.06 7.34402 168.548 7.34402V12.528C167.924 12.48 167.504 12.456 167.288 12.456C165.68 12.456 164.42 12.912 163.508 13.824C162.596 14.712 162.14 16.056 162.14 17.856V27H156.524V7.63202H161.888V10.188Z" fill="white"/>
<path d="M190.683 17.388C190.683 17.46 190.647 17.964 190.575 18.9H175.923C176.187 20.1 176.811 21.048 177.795 21.744C178.779 22.44 180.003 22.788 181.467 22.788C182.475 22.788 183.363 22.644 184.131 22.356C184.923 22.044 185.655 21.564 186.327 20.916L189.315 24.156C187.491 26.244 184.827 27.288 181.323 27.288C179.139 27.288 177.207 26.868 175.527 26.028C173.847 25.164 172.551 23.976 171.639 22.464C170.727 20.952 170.271 19.236 170.271 17.316C170.271 15.42 170.715 13.716 171.603 12.204C172.515 10.668 173.751 9.48002 175.311 8.64002C176.895 7.77602 178.659 7.34402 180.603 7.34402C182.499 7.34402 184.215 7.75202 185.751 8.56802C187.287 9.38402 188.487 10.56 189.351 12.096C190.239 13.608 190.683 15.372 190.683 17.388ZM180.639 11.592C179.367 11.592 178.299 11.952 177.435 12.672C176.571 13.392 176.043 14.376 175.851 15.624H185.391C185.199 14.4 184.671 13.428 183.807 12.708C182.943 11.964 181.887 11.592 180.639 11.592Z" fill="white"/>
</svg>
